<?xml version="1.0" encoding="iso-8859-1"?>
<!-- Uploaded to: SVG Repo, www.svgrepo.com, Generator: SVG Repo Mixer Tools -->
<svg fill="#000000" height="800px" width="800px" version="1.1" id="Capa_1" xmlns="http://www.w3.org/2000/svg" xmlns:xlink="http://www.w3.org/1999/xlink" 
	 viewBox="0 0 37.239 37.239" xml:space="preserve">
<g>
	<g id="b21_melon">
		<path d="M37.012,15.859c-0.293-3.484-1.591-6.676-3.627-9.272c0.523-0.557,1.617-1.373,3.854-2.047l-0.313-1.039
			c-2.31,0.696-3.563,1.558-4.248,2.248c-2.797-3.125-6.75-5.224-11.371-5.611C11.195-0.715,1.729,6.886,0.208,17.077
			c-1.52,10.193,5.468,19.175,15.581,20.024s19.578-6.75,21.099-16.941c0.218-1.457,0.243-2.881,0.13-4.268
			c0.018-0.05,0.041-0.097,0.06-0.146C37.058,15.784,37.031,15.82,37.012,15.859z M1.246,17.166
			C2.682,7.551,11.61,0.382,21.15,1.182c1.209,0.101,2.371,0.329,3.476,0.663c-1.024,0.127-2.048,0.322-3.065,0.552
			c-1.408,0.357-2.803,0.824-4.158,1.394c-2.721,1.139-5.257,2.777-7.51,4.731c-2.237,1.97-4.207,4.245-5.809,6.732
			c-1.171,1.824-2.199,3.741-2.979,5.735C1.016,19.745,1.052,18.468,1.246,17.166z M1.158,21.519
			c0.379-0.748,0.775-1.486,1.207-2.203c0.725-1.255,1.515-2.47,2.373-3.636c1.716-2.329,3.637-4.504,5.814-6.389
			c2.161-1.902,4.574-3.497,7.145-4.77c2.298-1.135,4.735-1.951,7.23-2.569c2.016,0.658,3.842,1.672,5.396,2.985
			c-2.97,0.076-5.989,0.723-8.854,1.881c-3.014,1.193-5.828,2.978-8.311,5.125c-2.465,2.176-4.609,4.701-6.312,7.46
			c-1.649,2.669-2.976,5.533-3.668,8.518C2.094,25.996,1.395,23.829,1.158,21.519z M4.686,30.155
			c-0.545-0.674-1.031-1.396-1.464-2.152c1.458-2.74,3.122-5.31,4.948-7.732c1.895-2.466,3.974-4.774,6.307-6.783
			c2.305-2.036,4.863-3.763,7.59-5.186c2.637-1.368,5.441-2.409,8.357-3.275c0.574,0.493,1.096,1.039,1.588,1.606
			c-0.08,0.159-0.115,0.271-0.127,0.312l0.232,0.064c-2.521,1.417-4.889,3.021-7.206,4.684c-2.517,1.829-4.959,3.748-7.331,5.751
			c-2.371,2-4.68,4.082-6.913,6.254C8.588,25.745,6.558,27.852,4.686,30.155z M4.827,30.318c2.575-1.443,4.988-3.082,7.355-4.778
			c2.517-1.826,4.956-3.747,7.332-5.746c2.376-1.998,4.684-4.078,6.916-6.251c2.079-2.046,4.107-4.15,5.974-6.455l0.012,0.004
			c0.887,1.095,1.624,2.312,2.201,3.619c-1.666,2.61-3.52,5.038-5.523,7.302c-2.084,2.315-4.336,4.455-6.811,6.273
			c-2.455,1.85-5.136,3.366-7.957,4.566c-2.707,1.142-5.551,1.947-8.488,2.573C5.482,31.073,5.146,30.703,4.827,30.318z
			 M5.961,31.542c2.921,0.156,5.932-0.24,8.836-1.154c3.086-0.946,6.023-2.502,8.663-4.446c2.622-1.976,4.958-4.327,6.874-6.953
			c1.844-2.521,3.39-5.265,4.326-8.178c0.896,2.064,1.378,4.345,1.363,6.745c-0.398,0.645-0.814,1.279-1.258,1.894
			c-0.82,1.198-1.704,2.353-2.652,3.447c-1.894,2.19-3.978,4.214-6.293,5.919c-2.299,1.728-4.824,3.124-7.478,4.188
			c-2.298,0.917-4.702,1.524-7.146,1.935C9.207,34.148,7.443,32.985,5.961,31.542z M35.85,20.072
			c-1.436,9.615-10.365,16.786-19.904,15.983c-1.529-0.128-2.971-0.472-4.326-0.968c0.906-0.049,1.812-0.147,2.721-0.275
			c1.425-0.243,2.842-0.595,4.236-1.051c2.79-0.916,5.44-2.349,7.834-4.118c2.384-1.788,4.521-3.904,6.314-6.265
			c1.258-1.654,2.383-3.41,3.301-5.252C36,18.768,35.948,19.417,35.85,20.072z"/>
	</g>
	<g id="Capa_1_202_">
	</g>
</g>
</svg>